# xmcd CD database file
#
# Track frame offsets:
#	150
#	37917
#	63166
#	82294
#	108983
#	140487
#	161561
#	183770
#	188463
#	219681
#	244224
#
# Disc length: 3643 seconds
#
# Revision: 1
# Processed by: cddbd v1.5.1PL0 Copyright (c) Steve Scherf et al.
# Submitted via: Feurio! 1.68 - http://www.feurio.com
#
DISCID=920e390b
DTITLE=Beth Orton - Paradiso Sept 19 2002 1 rem Sound2
DYEAR=1900
DGENRE=
TTITLE0=Beth - Galaxy Of Emptiness
TTITLE1=Beth - Paris Train
TTITLE2=Beth - Daybreaker
TTITLE3=Beth - Ted's Waltz
TTITLE4=Beth - Mount Washington
TTITLE5=Beth - Someone's Daughter
TTITLE6=Beth - Carmella
TTITLE7=Beth - Band Intro
TTITLE8=Beth - Sweetest Decline
TTITLE9=Beth - God Song
TTITLE10=Beth - Thinking About Tomorrow
EXTD=
EXTT0=
EXTT1=
EXTT2=
EXTT3=
EXTT4=
EXTT5=
EXTT6=
EXTT7=
EXTT8=
EXTT9=
EXTT10=
PLAYORDER=
